<svg width="604" height="201" viewBox="0 0 604 201" fill="none" xmlns="http://www.w3.org/2000/svg">
<rect width="604" height="201" fill="#F1F5F9"/>
<path d="M172 103C170.341 103 169 104.341 169 106V106.216V115.553C169 116.078 168.578 116.5 168.053 116.5C167.716 116.5 167.397 116.322 167.228 116.022L162.728 108.156C155.781 111.578 151 118.731 151 127V133H199V126.775C198.916 118.6 194.153 111.55 187.272 108.156L182.772 116.022C182.603 116.322 182.284 116.5 181.947 116.5C181.422 116.5 181 116.078 181 115.553V106.216V106C181 104.341 179.659 103 178 103H172ZM149.556 136C148.694 136 148 136.694 148 137.556C148 137.997 148.188 138.419 148.544 138.672C150.578 140.162 158.481 145 175 145C191.519 145 199.422 140.162 201.456 138.672C201.813 138.409 202 137.997 202 137.556C202 136.694 201.306 136 200.444 136H149.556Z" fill="#93C5FD" fill-opacity="0.2"/>
<path d="M44.0444 1.75993L46.2404 3.95633C48.5865 6.30291 48.5865 10.1044 46.2404 12.4509L40.9476 17.7448L30.2493 7.05381L35.5421 1.75993C37.8882 -0.586644 41.6889 -0.586644 44.0351 1.75993H44.0444ZM4.21672 33.1008L28.1284 9.17512L38.8267 19.8755L14.9056 43.7918C14.2769 44.4207 13.4886 44.8807 12.6346 45.1247L2.87474 47.9124C2.08644 48.1377 1.24184 47.9218 0.660003 47.3399C0.0781651 46.7579 -0.137678 45.9131 0.0875495 45.1247L2.87474 35.3629C3.11874 34.4994 3.57858 33.7203 4.20733 33.0914L4.21672 33.1008ZM23.408 9.65382L9.70664 23.3578L1.50461 15.1448C-0.250292 13.3896 -0.250292 10.5361 1.50461 8.77151L8.83388 1.45019C10.5888 -0.305055 13.4417 -0.305055 15.2059 1.45019L17.0641 3.30868C17.0359 3.33683 16.9984 3.36499 16.9702 3.39315L10.9642 9.40039C10.3823 9.98234 10.3823 10.9397 10.9642 11.5217C11.546 12.1036 12.5032 12.1036 13.085 11.5217L19.0911 5.51446C19.1193 5.4863 19.1474 5.44875 19.1756 5.4206L23.408 9.65382ZM38.3481 24.5968L42.5805 28.8301C42.5523 28.8582 42.5148 28.8864 42.4866 28.9145L36.4806 34.9218C35.8987 35.5037 35.8987 36.4611 36.4806 37.0431C37.0624 37.625 38.0196 37.625 38.6014 37.0431L44.6075 31.0358C44.6357 31.0077 44.6638 30.9701 44.692 30.942L46.5501 32.8099C48.305 34.5651 48.305 37.4185 46.5501 39.1832L39.2208 46.5045C37.4659 48.2597 34.613 48.2597 32.8488 46.5045L24.6467 38.3008L38.3481 24.5968Z" fill="#93C5FD" fill-opacity="0.2"/>
<path d="M309.371 0.469866C308.48 -0.223868 307.215 -0.139495 306.409 0.657362L302.659 4.40727C301.862 5.20413 301.778 6.46973 302.462 7.3697L309.962 17.1195C310.383 17.6726 311.049 18.0007 311.743 18.0007H316.814L327.033 28.2192C325.654 30.9379 326.095 34.3503 328.373 36.619L338.872 47.1188C340.044 48.2906 341.947 48.2906 343.119 47.1188L349.119 41.1189C350.291 39.9471 350.291 38.044 349.119 36.8721L338.619 26.3724C336.351 24.1037 332.938 23.6537 330.22 25.0318L320.002 14.8133V9.74152C320.002 9.03841 319.674 8.38218 319.12 7.96032L309.371 0.469866ZM303.868 37.1346C302.678 38.3252 302.003 39.9471 302.003 41.6345C302.003 45.1501 304.852 48 308.368 48C310.055 48 311.677 47.325 312.868 46.1344L323.911 35.0909C323.18 33.1316 323.067 31.0035 323.573 28.9879L317.789 23.2037L303.868 37.1346ZM350 13.5008C350 12.5165 349.897 11.5602 349.7 10.6415C349.475 9.59153 348.191 9.31966 347.431 10.079L341.441 16.0695C341.16 16.3507 340.776 16.5101 340.382 16.5101L335.001 16.5007C334.176 16.5007 333.501 15.8258 333.501 15.0008V9.61965C333.501 9.22591 333.66 8.84155 333.942 8.5603L339.932 2.56982C340.691 1.81046 340.419 0.526115 339.369 0.30112C338.441 0.10425 337.485 0.00112696 336.501 0.00112696C329.048 0.00112696 323.001 6.04786 323.001 13.5008V13.5758L330.998 21.5725C334.373 20.7194 338.104 21.6194 340.747 24.2631L342.219 25.7349C346.813 23.5787 350 18.9101 350 13.5008ZM307.252 40.5002C307.252 39.9035 307.489 39.3312 307.911 38.9092C308.333 38.4873 308.906 38.2502 309.502 38.2502C310.099 38.2502 310.671 38.4873 311.093 38.9092C311.515 39.3312 311.752 39.9035 311.752 40.5002C311.752 41.0969 311.515 41.6692 311.093 42.0911C310.671 42.5131 310.099 42.7501 309.502 42.7501C308.906 42.7501 308.333 42.5131 307.911 42.0911C307.489 41.6692 307.252 41.0969 307.252 40.5002Z" fill="#93C5FD" fill-opacity="0.2"/>
<path d="M488.769 122.266C486.125 122.716 483.312 121.928 481.268 119.884L477.696 116.312C476.29 114.906 475.502 113.012 475.502 111.025V109.891L468.03 105.812C467.533 105.541 467.223 105.006 467.251 104.434C467.28 103.862 467.617 103.356 468.142 103.122L472.568 101.153C474.293 100.394 476.159 100 478.052 100H479.749C483.19 100 486.5 101.312 489.003 103.666L493.185 107.603C495.454 109.741 496.298 112.825 495.679 115.666L497.16 117.156L497.91 116.406C498.792 115.525 500.217 115.525 501.089 116.406L503.339 118.656C504.22 119.538 504.22 120.962 503.339 121.834L495.088 130.084C494.207 130.966 492.782 130.966 491.91 130.084L489.66 127.834C488.778 126.953 488.778 125.528 489.66 124.656L490.41 123.906L488.769 122.266ZM452.569 135.353L474.461 117.119C474.79 117.578 475.165 118.019 475.568 118.431L479.14 122.003C479.703 122.566 480.303 123.053 480.94 123.475L462.648 145.431C461.288 147.062 459.273 148 457.154 148C453.197 148 450 144.794 450 140.847C450 138.728 450.947 136.713 452.569 135.353Z" fill="#93C5FD" fill-opacity="0.2"/>
</svg>
