<svg viewBox="0 0 250 250" fill="none" xmlns="http://www.w3.org/2000/svg">
    <path d="M0 125C0 55.9644 55.9644 0 125 0C194.036 0 250 55.9644 250 125C250 194.036 194.036 250 125 250C55.9644 250 0 194.036 0 125Z" fill="#10375C"/>
    <rect x="139.714" y="128.497" width="15.0828" height="14.9129" transform="rotate(-90 139.714 128.497)" fill="#F5F0CD"/>
    <rect x="139.714" y="151.701" width="15.0828" height="14.9129" transform="rotate(-90 139.714 151.701)" fill="#F5F0CD"/>
    <rect x="116.771" y="151.701" width="15.0828" height="14.9129" transform="rotate(-90 116.771 151.701)" fill="#F5F0CD"/>
    <rect x="116.771" y="128.497" width="15.0828" height="14.9129" transform="rotate(-90 116.771 128.497)" fill="#F5F0CD"/>
    <rect width="89.7366" height="11.4793" transform="matrix(0.703089 -0.711102 0.703089 0.711102 54.8257 105.293)" fill="white"/>
    <rect width="106.052" height="11.4793" transform="matrix(0.703089 -0.711102 0.703089 0.711102 76.6215 113.414)" fill="white"/>
    <rect width="105.994" height="11.479" transform="matrix(0.703089 0.711102 -0.703089 0.711102 151.226 38.0412)" fill="white"/>
    <rect x="54.8257" y="177.25" width="71.9334" height="11.4714" transform="rotate(-90 54.8257 177.25)" fill="white"/>
    <rect x="76.6215" y="177.226" width="63.8119" height="11.4714" transform="rotate(-90 76.6215 177.226)" fill="white"/>
    <rect x="214.279" y="177.226" width="63.8119" height="11.4714" transform="rotate(-90 214.279 177.226)" fill="white"/>
    <rect x="169.54" y="177.25" width="71.9334" height="11.4714" transform="rotate(-90 169.54 177.25)" fill="white"/>
    <rect x="76.6215" y="177.226" width="11.6022" height="80.3" transform="rotate(-90 76.6215 177.226)" fill="white"/>
    <rect x="25" y="165.648" width="41.2971" height="11.6022" fill="white"/>
    <rect width="89.6617" height="11.4793" transform="matrix(0.703089 0.711102 -0.703089 0.711102 117.971 41.5339)" fill="white"/>
</svg>
